<svg width="1280" height="720" xmlns="http://www.w3.org/2000/svg" xmlns:xlink="http://www.w3.org/1999/xlink" overflow="hidden"><defs><filter id="fx0" x="-10%" y="-10%" width="120%" height="120%" filterUnits="userSpaceOnUse" primitiveUnits="userSpaceOnUse"><feComponentTransfer color-interpolation-filters="sRGB"><feFuncR type="discrete" tableValues="0 0"/><feFuncG type="discrete" tableValues="0 0"/><feFuncB type="discrete" tableValues="0 0"/><feFuncA type="linear" slope="0.4" intercept="0"/></feComponentTransfer><feGaussianBlur stdDeviation="2.09693 2.09693"/></filter><filter id="fx1" x="-10%" y="-10%" width="120%" height="120%" filterUnits="userSpaceOnUse" primitiveUnits="userSpaceOnUse"><feComponentTransfer color-interpolation-filters="sRGB"><feFuncR type="discrete" tableValues="0 0"/><feFuncG type="discrete" tableValues="0 0"/><feFuncB type="discrete" tableValues="0 0"/><feFuncA type="linear" slope="0.4" intercept="0"/></feComponentTransfer><feGaussianBlur stdDeviation="2.09693 2.09693"/></filter><linearGradient x1="581.427" y1="418.048" x2="572.403" y2="253.035" gradientUnits="userSpaceOnUse" spreadMethod="reflect" id="fill2"><stop offset="0" stop-color="#0A6A8F"/><stop offset="0.48" stop-color="#10A4DD"/><stop offset="1" stop-color="#61CBF4"/></linearGradient><clipPath id="clip3"><rect x="146" y="139" width="177" height="147"/></clipPath><clipPath id="clip4"><rect x="148" y="137" width="210" height="149"/></clipPath></defs><g><rect x="0" y="0" width="1280" height="720" fill="#FFFFFF"/><path d="M651.795 390.6C620.244 424.286 566.819 426.634 532.466 395.843 498.113 365.052 495.842 312.784 527.392 279.097 542.327 263.152 563.035 253.548 585.082 252.342Z" fill="url(#fill2)" fill-rule="evenodd"/><g clip-path="url(#clip3)" filter="url(#fx0)" transform="translate(372 112)"><g><path d="M136.406 0 77.2266-123.516 88.7109-123.516C90.2734-119.453 92.4609-114.336 95.2734-108.164 98.3984-101.523 100.156-97.5781 100.547-96.3281 100.937-95.625 101.289-94.8047 101.602-93.8672L129.141-36.7969C138.75-16.9531 148.984-4.92187 159.844-0.703125L159.844 1.40625C149.219 0.46875 141.406 0 136.406 0ZM52.7344-58.9453 88.125-58.9453 71.1328-94.5703ZM102.773-28.3594 92.3438-50.1562 48.1641-50.1562 37.0312-28.3594C37.0312-28.3594 36.8359-27.8516 36.4453-26.8359 36.3672-26.7578 35.7812-25.625 34.6875-23.4375 33.0469-20.1562 32.2266-16.7969 32.2266-13.3594 32.2266-7.42188 35.5078-3.20312 42.0703-0.703125L42.0703 1.40625C40.7422 1.40625 38.4375 1.21094 35.1562 0.820312 30.5469 0.273438 26.4062 0 22.7344 0 19.375 0 15.2344 0.273438 10.3125 0.820312 6.95312 1.21094 4.72656 1.40625 3.63281 1.40625L3.63281-0.703125C12.2266-5.07812 20.0391-14.1016 27.0703-27.7734L65.9766-103.477C63.0078-109.492 58.9258-114.141 53.7305-117.422 48.5352-120.703 42.4609-122.5 35.5078-122.812L35.5078-124.922 39.6094-124.922C43.2812-124.922 48.3203-124.687 54.7266-124.219 61.4453-123.75 65.8203-123.516 67.8516-123.516L127.031 0C119.453 0.15625 110.352 0.625 99.7266 1.40625L99.7266-0.703125C105.664-1.71875 108.633-4.92188 108.633-10.3125 108.633-14.2969 106.68-20.3125 102.773-28.3594Z" fill="#FFFFFF" transform="translate(151.734 274)"/></g></g><text fill="#FFFFFF" font-family="Colonna MT,Colonna MT_MSFontService,sans-serif" font-weight="400" font-size="240" transform="translate(521.6 384)">A</text><g clip-path="url(#clip4)" filter="url(#fx1)" transform="translate(534 112)"><g><path d="M6.91406-14.0625 12.7734-20.0391 29.6484-3.39844 23.7891 2.57812ZM17.8125-24.9609 23.6719-30.9375 40.5469-14.2969 34.6875-8.32031ZM59.1016-40.6641 61.7969-40.6641C62.3438-30.6641 66.3672-22.4219 73.8672-15.9375 81.2109-9.53125 89.6484-6.32812 99.1797-6.32812 106.523-6.32812 112.5-8.39844 117.109-12.5391 121.719-16.6797 124.023-21.6406 124.023-27.4219 124.023-33.5156 121.797-38.2422 117.344-41.6016 113.047-44.8828 104.57-48.5938 91.9141-52.7344 81.7578-56.0937 74.5312-58.8672 70.2344-61.0547 65.2344-63.6328 61.3281-67.1094 58.5156-71.4844 55.4688-75.9375 53.9453-80.9375 53.9453-86.4844 53.9453-92.6562 56.0156-98.7109 60.1562-104.648 59.2188-101.602 58.75-98.9453 58.75-96.6797 58.75-90.5859 60.1953-85.2344 63.0859-80.625 66.0547-75.8594 69.7266-72.2656 74.1016-69.8438 78.4766-67.3438 85.7812-64.4922 96.0156-61.2891 109.375-57.2266 119.023-52.7344 124.961-47.8125 130.664-43.0469 133.516-36.6406 133.516-28.5938 133.516-20.7031 130.547-13.5547 124.609-7.14844 118.594-0.664063 109.609 2.57812 97.6562 2.57812 92.8125 2.57812 86.0938 1.67969 77.5-0.117188 70-1.67969 64.375-2.5 60.625-2.57812L59.8047-3.51562C59.8828-4.84375 59.9219-6.5625 59.9219-8.67188 59.9219-11.1719 59.6875-15.0391 59.2188-20.2734 58.8281-25.5078 58.6328-29.4141 58.6328-31.9922 58.6328-35.3516 58.7891-38.2422 59.1016-40.6641ZM141.836-89.6484 139.375-89.6484C139.297-98.7109 135.703-105.43 128.594-109.805 121.641-114.102 113.203-116.25 103.281-116.25 95.3906-116.25 88.9062-114.57 83.8281-111.211 78.6719-107.852 76.0938-103.828 76.0938-99.1406 76.0938-94.1406 78.125-90.1953 82.1875-87.3047 86.4062-84.1797 94.7266-80.4688 107.148-76.1719 118.711-72.1875 126.797-68.9453 131.406-66.4453 136.328-63.7109 140.43-59.8047 143.711-54.7266 146.992-49.4922 148.633-43.6719 148.633-37.2656 148.633-27.5 145.039-19.8438 137.852-14.2969 140.508-17.9688 141.836-23.125 141.836-29.7656 141.836-36.0156 140.391-41.5625 137.5-46.4062 134.453-51.3281 130.703-55.2344 126.25-58.125 121.719-61.0937 114.336-64.2578 104.102-67.6172 88.7109-72.6953 78.6719-77.0312 73.9844-80.625 69.2969-84.2969 66.9531-90 66.9531-97.7344 66.9531-106.641 70.5469-113.633 77.7344-118.711 84.9219-123.633 95.1172-126.094 108.32-126.094 117.305-126.094 128.281-124.531 141.25-121.406L141.25-120.586 141.484-116.133C141.484-113.789 141.562-110.977 141.719-107.695 141.953-103.711 142.07-100.195 142.07-97.1484 142.07-95.1172 141.992-92.6172 141.836-89.6484ZM161.914-14.0625 167.773-20.0391 184.648-3.39844 178.789 2.57812ZM172.812-24.9609 178.672-30.9375 195.547-14.2969 189.688-8.32031Z" fill="#0B76A0" transform="translate(152.234 274)"/></g></g><text fill="#0B76A0" font-family="Colonna MT,Colonna MT_MSFontService,sans-serif" font-weight="400" font-size="240" transform="translate(684.1 384)">.S.</text></g></svg>